# xmcd
#
# Track frame offsets:
#  150
#  19124
#  59058
#  75883
#  102010
#  119680
#  138915
#  176244
#  191158
#  217914
#  231874
#  252202
#  269778
#  299458
#
# Disc length: 4220 seconds
#
# Revision: 0
# Processed by: cddbd v1.5.1PL2 Copyright (c) Steve Scherf et al.
# Submitted via: Collectorz.com_Music_Collector 6.9
#
DISCID=d3107a0e
DTITLE=Fern Kinney - Together We Are Beautiful - Disc 1
DYEAR=2003
DGENRE=General R&B
TTITLE0=Together We Are Beautiful
TTITLE1=Groove Me
TTITLE2=Pillow Talk
TTITLE3=Angel On The Ground
TTITLE4=Movie Show
TTITLE5=Under Fire
TTITLE6=Baby Let Me Kiss You
TTITLE7=Sun, Moom and Rain
TTITLE8=(I've Been) Lonely For So Long
TTITLE9=I Want You Back
TTITLE10=Love Me Tonight
TTITLE11=Let Me Entertain You
TTITLE12=Let The Good Times Roll
TTITLE13=There'll Never Be A Night Like This
EXTD=
EXTT0=
EXTT1=
EXTT2=
EXTT3=
EXTT4=
EXTT5=
EXTT6=
EXTT7=
EXTT8=
EXTT9=
EXTT10=
EXTT11=
EXTT12=
EXTT13=
PLAYORDER=
